<svg width="24" height="24" viewBox="0 0 24 24"  xmlns="http://www.w3.org/2000/svg">
<path d="M7.54545 2C7.30435 2 7.07312 2.09578 6.90263 2.26627C6.73214 2.43675 6.63636 2.66799 6.63636 2.90909C6.63636 3.1502 6.73214 3.38143 6.90263 3.55192C7.07312 3.7224 7.30435 3.81818 7.54545 3.81818H14.8182C15.0593 3.81818 15.2905 3.7224 15.461 3.55192C15.6315 3.38143 15.7273 3.1502 15.7273 2.90909C15.7273 2.66799 15.6315 2.43675 15.461 2.26627C15.2905 2.09578 15.0593 2 14.8182 2H7.54545ZM3 13.8182C3 11.6482 3.86201 9.56715 5.3964 8.03276C6.93079 6.49837 9.01187 5.63636 11.1818 5.63636C13.3518 5.63636 15.4328 6.49837 16.9672 8.03276C18.5016 9.56715 19.3636 11.6482 19.3636 13.8182C19.3636 15.9881 18.5016 18.0692 16.9672 19.6036C15.4328 21.138 13.3518 22 11.1818 22C9.01187 22 6.93079 21.138 5.3964 19.6036C3.86201 18.0692 3 15.9881 3 13.8182ZM10.2727 15.6364C10.2727 15.8775 10.3685 16.1087 10.539 16.2792C10.7095 16.4497 10.9407 16.5455 11.1818 16.5455C11.4229 16.5455 11.6542 16.4497 11.8246 16.2792C11.9951 16.1087 12.0909 15.8775 12.0909 15.6364V10.1818C12.0909 9.94071 11.9951 9.70948 11.8246 9.53899C11.6542 9.36851 11.4229 9.27273 11.1818 9.27273C10.9407 9.27273 10.7095 9.36851 10.539 9.53899C10.3685 9.70948 10.2727 9.94071 10.2727 10.1818V15.6364ZM20.9164 9.00545C20.7461 9.17612 20.5151 9.27219 20.274 9.27253C20.033 9.27287 19.8016 9.17746 19.6309 9.00727L17.8091 7.19273C17.7222 7.10899 17.6528 7.00877 17.605 6.89793C17.5572 6.78709 17.5319 6.66783 17.5307 6.54713C17.5295 6.42643 17.5523 6.30669 17.5979 6.19491C17.6434 6.08313 17.7108 5.98153 17.796 5.89606C17.8813 5.81058 17.9827 5.74294 18.0943 5.69707C18.206 5.6512 18.3256 5.62803 18.4463 5.62891C18.5671 5.62978 18.6864 5.65468 18.7974 5.70217C18.9083 5.74965 19.0087 5.81875 19.0927 5.90545L20.9145 7.72C21.0852 7.89024 21.1813 8.12129 21.1816 8.36235C21.182 8.60341 21.0865 8.83473 20.9164 9.00545Z"  fill="#00C26D" />
</svg>
