<svg width="47" height="50" viewBox="0 0 47 50" fill="none" xmlns="http://www.w3.org/2000/svg">
<path d="M46.0278 25.406C46.0278 38.6911 35.9249 49.406 23.5278 49.406C11.1307 49.406 1.02783 38.6911 1.02783 25.406C1.02783 12.1209 11.1307 1.40601 23.5278 1.40601C35.9249 1.40601 46.0278 12.1209 46.0278 25.406Z" fill="#00C260" stroke="#02D076"/>
<path d="M27.8217 27.7268H26.9183L26.5982 27.4489C27.7576 26.2387 28.3948 24.6935 28.3935 23.0955C28.3935 21.7725 27.9575 20.4791 27.1408 19.379C26.3241 18.2789 25.1632 17.4215 23.8051 16.9152C22.4469 16.4089 20.9524 16.2764 19.5106 16.5345C18.0688 16.7927 16.7444 17.4298 15.7049 18.3653C14.6654 19.3009 13.9575 20.4928 13.6707 21.7905C13.3839 23.0881 13.5311 24.4332 14.0936 25.6555C14.6562 26.8779 15.6089 27.9226 16.8312 28.6577C18.0535 29.3927 19.4906 29.7851 20.9607 29.7851C22.8017 29.7851 24.4941 29.1779 25.7977 28.1693L26.1064 28.4575V29.2705L31.824 34.406L33.5278 32.8726L27.8217 27.7268ZM20.9607 27.7268C18.1133 27.7268 15.8149 25.6582 15.8149 23.0955C15.8149 20.5329 18.1133 18.4643 20.9607 18.4643C23.808 18.4643 26.1064 20.5329 26.1064 23.0955C26.1064 25.6582 23.808 27.7268 20.9607 27.7268Z" fill="white"/>
</svg>
